<?xml version="1.0" encoding="UTF-8" standalone="no"?>
<svg
   xmlns:dc="http://purl.org/dc/elements/1.1/"
   xmlns:cc="http://creativecommons.org/ns#"
   xmlns:rdf="http://www.w3.org/1999/02/22-rdf-syntax-ns#"
   xmlns:svg="http://www.w3.org/2000/svg"
   xmlns="http://www.w3.org/2000/svg"
   xmlns:sodipodi="http://sodipodi.sourceforge.net/DTD/sodipodi-0.dtd"
   xmlns:inkscape="http://www.inkscape.org/namespaces/inkscape"
   class="ionicon"
   viewBox="0 0 512 512"
   version="1.1"
   id="svg6"
   sodipodi:docname="icon.svg"
   inkscape:version="1.0.1 (3bc2e813f5, 2020-09-07)">
  <metadata
     id="metadata12">
    <rdf:RDF>
      <cc:Work
         rdf:about="">
        <dc:format>image/svg+xml</dc:format>
        <dc:type
           rdf:resource="http://purl.org/dc/dcmitype/StillImage" />
      </cc:Work>
    </rdf:RDF>
  </metadata>
  <defs
     id="defs10" />
  <sodipodi:namedview
     pagecolor="#ffffff"
     bordercolor="#666666"
     borderopacity="1"
     objecttolerance="10"
     gridtolerance="10"
     guidetolerance="10"
     inkscape:pageopacity="0"
     inkscape:pageshadow="2"
     inkscape:window-width="1920"
     inkscape:window-height="1027"
     id="namedview8"
     showgrid="false"
     inkscape:zoom="1.6796875"
     inkscape:cx="256"
     inkscape:cy="256"
     inkscape:window-x="-8"
     inkscape:window-y="827"
     inkscape:window-maximized="1"
     inkscape:current-layer="svg6" />
  <title
     id="title2">Airplane</title>
  <path
     d="M186.62 464H160a16 16 0 01-14.57-22.6l64.46-142.25L113.1 297l-35.3 42.77C71.07 348.23 65.7 352 52 352H34.08a17.66 17.66 0 01-14.7-7.06c-2.38-3.21-4.72-8.65-2.44-16.41l19.82-71c.15-.53.33-1.06.53-1.58a.38.38 0 000-.15 14.82 14.82 0 01-.53-1.59l-19.84-71.45c-2.15-7.61.2-12.93 2.56-16.06a16.83 16.83 0 0113.6-6.7H52c10.23 0 20.16 4.59 26 12l34.57 42.05 97.32-1.44-64.44-142A16 16 0 01160 48h26.91a25 25 0 0119.35 9.8l125.05 152 57.77-1.52c4.23-.23 15.95-.31 18.66-.31C463 208 496 225.94 496 256c0 9.46-3.78 27-29.07 38.16-14.93 6.6-34.85 9.94-59.21 9.94-2.68 0-14.37-.08-18.66-.31l-57.76-1.54-125.36 152a25 25 0 01-19.32 9.75z"
     id="path4" />
  <path
     style="fill:#61dbfb;stroke-width:0.595349"
     d="m 172.93488,45.193023 c -7.37199,0.610118 -15.54543,-1.029005 -22.25232,2.825582 -7.9307,4.574069 -11.69376,15.446104 -7.17069,23.67227 16.5274,38.417245 34.37659,76.250195 51.44625,114.428455 3.57445,7.90307 7.15117,15.80524 10.69653,23.72137 -30.64276,0.72309 -61.36078,0.84581 -92.03372,1.55581 -12.51832,-15.00335 -24.466703,-30.52552 -37.496514,-45.07907 -7.406921,-6.17815 -17.039508,-9.5633 -26.7093,-8.85232 -7.305859,0.16765 -14.716134,-0.45121 -21.95,0.33255 -7.436595,3.04659 -13.875371,9.83429 -13.77093,18.27791 0.720823,9.92313 4.42013,19.38393 6.703696,29.02048 4.655741,16.93961 9.383083,33.85945 14.071886,50.78998 -6.688168,24.79893 -14.351415,49.35204 -20.245349,74.35582 -2.105038,6.88413 0.390158,14.43913 5.839535,19.03604 4.406707,4.72959 11.043001,5.59774 17.172063,5.2526 9.347124,-0.47966 19.148197,1.34052 28.154681,-1.86422 8.462697,-2.5775 12.946903,-10.70016 18.703629,-16.73341 10.20366,-11.9318 20.289093,-23.96653 30.139393,-36.19217 30.43405,0.70775 60.87173,1.27982 91.30117,2.17209 -20.78193,46.92846 -42.4358,93.48255 -63.21047,140.40349 -2.55408,7.90021 0.82158,16.96278 7.89651,21.30349 6.71055,4.60119 15.37125,2.45607 22.97086,2.9825 8.99071,-0.56375 18.99523,1.5019 26.93844,-3.89762 5.99161,-3.85241 9.64564,-10.36861 14.53021,-15.43196 39.64164,-47.21229 78.6316,-94.9664 117.91514,-142.47618 28.6476,1.27615 57.34653,2.00465 86.02105,1.51232 21.46509,-0.67025 43.92393,-4.49877 61.89639,-16.97743 12.20195,-8.29788 19.6396,-23.24043 17.76172,-38.02111 -1.47336,-16.25629 -14.55272,-28.67512 -28.8002,-34.98849 -26.10198,-11.86474 -55.4844,-11.30505 -83.53244,-10.66017 -17.622,0.39563 -35.23973,0.95664 -52.85931,1.44419 C 289.83335,156.04338 247.99465,103.6278 204.67907,52.552326 c -6.13623,-5.912994 -14.87139,-7.615543 -23.11861,-7.297675 -2.8748,-0.05949 -5.75022,-0.07674 -8.62558,-0.06163 z"
     id="path837"
     inkscape:export-xdpi="116.6207"
     inkscape:export-ydpi="116.6207" />
</svg>
