<?xml version="1.0" encoding="UTF-8" standalone="no"?>
<svg
   xmlns:dc="http://purl.org/dc/elements/1.1/"
   xmlns:cc="http://creativecommons.org/ns#"
   xmlns:rdf="http://www.w3.org/1999/02/22-rdf-syntax-ns#"
   xmlns:svg="http://www.w3.org/2000/svg"
   xmlns="http://www.w3.org/2000/svg"
   xmlns:sodipodi="http://sodipodi.sourceforge.net/DTD/sodipodi-0.dtd"
   xmlns:inkscape="http://www.inkscape.org/namespaces/inkscape"
   class="ionicon"
   viewBox="0 0 512 512"
   version="1.1"
   id="svg6"
   sodipodi:docname="airplane-outline.svg"
   inkscape:version="1.0.1 (3bc2e813f5, 2020-09-07)">
  <metadata
     id="metadata12">
    <rdf:RDF>
      <cc:Work
         rdf:about="">
        <dc:format>image/svg+xml</dc:format>
        <dc:type
           rdf:resource="http://purl.org/dc/dcmitype/StillImage" />
      </cc:Work>
    </rdf:RDF>
  </metadata>
  <defs
     id="defs10" />
  <sodipodi:namedview
     pagecolor="#ffffff"
     bordercolor="#666666"
     borderopacity="1"
     objecttolerance="10"
     gridtolerance="10"
     guidetolerance="10"
     inkscape:pageopacity="0"
     inkscape:pageshadow="2"
     inkscape:window-width="1920"
     inkscape:window-height="1027"
     id="namedview8"
     showgrid="false"
     inkscape:zoom="0.83984375"
     inkscape:cx="208.20182"
     inkscape:cy="247.99831"
     inkscape:window-x="-8"
     inkscape:window-y="827"
     inkscape:window-maximized="1"
     inkscape:current-layer="svg6"
     inkscape:document-rotation="0" />
  <title
     id="title2">Airplane</title>
  <path
     d="M407.72 224c-3.4 0-14.79.1-18 .3l-64.9 1.7a1.83 1.83 0 01-1.69-.9L193.55 67.56a9 9 0 00-6.66-3.56H160l73 161a2.35 2.35 0 01-2.26 3.35l-121.69 1.8a8.06 8.06 0 01-6.6-3.1l-37-45c-3-3.9-8.62-6-13.51-6H33.08c-1.29 0-1.1 1.21-.75 2.43l19.84 71.42a16.3 16.3 0 010 11.9L32.31 333c-.59 1.95-.52 3 1.77 3H52c8.14 0 9.25-1.06 13.41-6.3l37.7-45.7a8.19 8.19 0 016.6-3.1l120.68 2.7a2.7 2.7 0 012.43 3.74L160 448h26.64a9 9 0 006.65-3.55L323.14 287c.39-.6 2-.9 2.69-.9l63.9 1.7c3.3.2 14.59.3 18 .3C452 288.1 480 275.93 480 256s-27.88-32-72.28-32z"
     fill="none"
     stroke="currentColor"
     stroke-linecap="round"
     stroke-linejoin="round"
     stroke-width="32"
     id="path4" />
  <path
     style="fill:#0000ff;stroke-width:1.1907"
     d="m 168.6367,45.575058 c -9.60238,-0.737835 -21.42812,1.149852 -25.19302,11.495348 -4.23859,10.263285 4.33976,19.887 7.13236,29.362963 17.97691,41.416381 37.16409,82.291331 55.30717,123.634711 -30.78427,0.77822 -61.57637,1.18281 -92.36511,1.73954 -14.470447,-16.28495 -26.56843,-35.08373 -43.469768,-49.01163 -10.915516,-6.93002 -24.673587,-3.82152 -36.906977,-4.56977 -12.430346,-0.60476 -22.664869,13.58474 -17.96279,25.25814 5.92024,24.28479 13.105375,48.24131 19.606977,72.37442 -7.013202,26.42001 -15.3212,52.5827 -21.244186,79.24651 1.024733,11.79821 12.231881,20.15111 23.730232,19.43489 12.851179,-0.67189 28.92329,2.28232 37.976745,-9.36977 13.63214,-14.48089 25.712757,-30.32298 38.497677,-45.53722 30.74435,0.57073 61.56888,0.94076 92.26046,1.79768 -20.62439,48.11837 -44.01846,95.06333 -63.3,143.74186 -2.86228,10.87562 7.72701,22.1 18.80233,20.94651 13.64754,-0.2797 29.86553,3.21085 41.35116,-6.10698 44.10351,-50.84994 85.989,-103.55517 129.43023,-154.95581 37.57281,-0.8564 75.60974,4.90275 112.8563,-2.18738 20.6704,-4.17162 44.4567,-14.04877 51.36928,-35.90797 2.6764,-12.32555 1.31282,-26.22068 -7.77209,-35.71861 -17.13805,-19.39161 -44.747,-24.0036 -69.35746,-25.07506 -29.2464,-0.64654 -58.49571,0.52776 -87.74021,0.84251 C 289.7146,156.6313 249.15675,105.08075 206.09869,55.657927 199.352,46.218402 187.24895,44.921245 176.56927,45.565376 c -2.64421,-0.01872 -5.28836,0.0012 -7.93257,0.0097 z M 249.16926,163.7425 c 22.07333,26.13116 42.90717,53.46599 66.51162,78.21861 12.4535,2.96035 25.76961,1.03055 38.52791,1.70737 27.70338,0.53985 55.56479,-1.62391 83.16978,1.09728 8.20584,2.06176 17.87936,3.86829 23.77674,10.32558 -0.26968,5.47969 -8.0752,6.72695 -11.96977,9.04651 -19.90831,7.3962 -41.57413,3.95125 -62.34409,4.60819 -22.87658,0.31525 -45.93116,-1.84059 -68.71405,0.43832 -8.69218,3.52832 -12.82333,13.34873 -19.43828,19.54223 -34.36218,40.62353 -67.84469,81.96612 -102.078,122.68335 17.28602,-39.38134 36.67313,-77.89006 52.34419,-117.95349 3.24025,-7.10688 2.76072,-15.78918 -3.44419,-21.18604 -8.21258,-8.78522 -21.81002,-5.97962 -32.61277,-7.31749 -36.59955,-0.7542 -73.28111,-2.52753 -109.85932,-1.43601 -12.530425,4.22149 -19.388819,17.00701 -28.125952,26.07671 -5.620444,6.75045 -11.156834,13.57251 -16.92056,20.20237 4.252301,-17.85215 10.661767,-35.31824 13.476745,-53.44419 -2.474819,-18.74942 -9.347034,-36.65268 -13.562791,-54.94186 12.803721,14.28972 23.147311,31.1405 38.195349,43.24186 11.601609,6.7348 25.806649,2.55265 38.499789,3.61573 33.52126,-0.78322 67.15225,0.008 100.59557,-2.42038 9.42676,-1.91622 17.22058,-12.0877 16.16045,-21.64651 -16.85307,-42.03492 -36.72982,-82.78512 -54.67442,-124.35814 17.49535,21.3 34.9907,42.6 52.48605,63.9 z"
     id="path14"
     inkscape:export-xdpi="3.6475184"
     inkscape:export-ydpi="3.6475184" />
  <path
     style="fill:#61dbfb;stroke-width:1.1907;fill-opacity:1"
     d="m 170.90415,43.221566 c -10.94184,-0.218199 -25.08804,0.941414 -29.5721,12.911628 -3.60122,10.572933 4.03835,21.02839 7.12854,30.802833 17.44324,40.540313 36.18708,80.604093 53.79938,121.008793 -29.3061,0.23417 -58.61161,0.85309 -87.90931,1.65815 -14.754992,-17.30475 -27.670179,-37.09346 -46.483723,-50.32792 -11.340135,-4.73285 -24.244412,-3.25147 -36.265116,-3.14186 -12.681988,0.38 -22.0424918,14.03162 -18.560465,26.10001 4.651927,25.09014 13.412077,49.30092 18.809302,74.07674 -5.925531,26.03577 -15.269502,51.27928 -19.74186,77.62558 -1.402707,13.66475 13.221576,23.29401 25.693035,22.83698 12.903484,-0.0414 28.695137,1.80538 37.862779,-9.39512 13.895975,-14.20668 26.084408,-29.95167 38.686048,-45.28604 29.29274,0.56405 58.64093,0.84596 87.8814,1.79069 -19.56789,46.52903 -42.7549,91.88842 -60.60234,139.26744 -5.65519,13.11659 8.03237,26.59811 21.0628,25.50466 14.83198,-0.43431 32.83844,2.6274 43.84884,-9.93024 32.17572,-36.18635 62.23334,-74.23046 93.42825,-111.26883 11.17381,-13.49163 22.34248,-26.98765 33.43919,-40.54279 37.68565,0.94058 75.8363,4.2154 113.22561,-2.10952 21.17848,-3.79407 43.68382,-15.36193 51.64183,-36.51839 5.5591,-18.36709 -3.16332,-39.07957 -19.65583,-48.65118 -28.28107,-18.48607 -63.58658,-15.67601 -95.81627,-15.9651 -16.85358,0.25107 -33.70538,0.60686 -50.55814,0.90697 C 290.79105,154.14333 250.31344,102.84118 207.10576,53.892009 199.36221,44.074528 186.36961,42.44093 174.70184,43.209191 c -1.26589,-0.0051 -2.5318,0.01078 -3.79769,0.01238 z m 38.47209,75.565114 c 34.85519,42.15261 69.00622,84.92049 105.32558,125.83488 11.79866,2.47782 24.57793,0.58006 36.7491,1.39568 30.03729,0.87349 60.228,-0.51299 90.11369,2.16944 5.6204,1.66314 12.71333,2.99357 16.35582,7.74419 -11.98729,10.69113 -29.43078,9.56927 -44.31132,10.21328 -31.71213,0.86033 -63.53704,-1.36516 -95.1817,0.95881 -9.68603,2.98205 -14.39381,13.50262 -21.33994,20.13242 -30.63092,36.37435 -60.71217,73.1952 -91.32519,109.58154 15.64669,-35.12237 32.63619,-69.74185 46.26978,-105.70466 4.89191,-12.96115 -6.87427,-26.85248 -20.0814,-26.93256 -39.16972,-3.17082 -78.56142,-2.88844 -117.83953,-3.50398 -9.55736,-1.44296 -18.782669,2.65075 -24.981402,9.88538 -9.360404,9.4873 -17.606126,19.98787 -26.248837,30.11395 3.276968,-15.6002 10.0649,-30.77529 10.344186,-46.84651 -1.914348,-14.56283 -7.03287,-28.59001 -10.272093,-42.7907 11.614992,12.85522 20.850301,29.22311 36.651163,37.44187 13.915583,4.26722 28.933793,1.40502 43.262793,2.11627 31.00396,-0.99474 62.16048,-0.0777 93.06047,-2.83952 11.44034,-2.82701 21.61537,-16.66006 15.57674,-28.21629 -13.93082,-35.82719 -30.67493,-70.47875 -46.12094,-105.66279 1.33101,1.63643 2.66202,3.27287 3.99303,4.9093 z"
     id="path9"
     inkscape:export-xdpi="43.300854"
     inkscape:export-ydpi="43.300854" />
</svg>
